<svg xmlns="http://www.w3.org/2000/svg" width="260" height="274.7894736842105" viewBox="0 0 260 274.7894736842105">
  <rect x="2" y="2" width="256" height="270.7894736842105" rx="14" fill="#faf6ec" stroke="#d3c8ae" stroke-width="2"/>
  <text x="130" y="28" text-anchor="middle" font-family="Anton" font-size="17" letter-spacing="0.5" fill="#1d1a13">1979–1984</text>
  <svg x="70" y="40" width="120" height="139.78947368421052" viewBox="128 494 142.5 166"><defs><linearGradient id="bbksh-_R_0_" x1="0" y1="0" x2="0" y2="1"><stop offset="0" stop-color="#ffffff" stop-opacity="0.1"></stop><stop offset="0.5" stop-color="#ffffff" stop-opacity="0"></stop><stop offset="1" stop-color="#000000" stop-opacity="0.12"></stop></linearGradient><clipPath id="bbkpin-_R_0_"><path d="M237.813,558.699c0.579-5.578,1.427-11.125,2.131-16.686c0.184-1.66,0.56-3.313,0.471-4.992     c-0.11-2.738-0.816-5.441-1.98-7.918c-0.768-1.627-1.703-3.184-2.9-4.533c-2.915-3.346-6.546-5.984-10.332-8.262     c-2.111-1.377-4.435-2.398-6.817-3.203c-4.854-1.613-9.964-2.336-15.06-2.592c-1.352-0.059-2.706-0.09-4.061-0.092     c-1.355,0.002-2.711,0.033-4.063,0.092c-5.096,0.256-10.204,0.979-15.059,2.592c-2.383,0.805-4.707,1.826-6.817,3.203     c-3.786,2.277-7.417,4.916-10.333,8.262c-1.197,1.35-2.132,2.906-2.9,4.533c-1.163,2.477-1.869,5.18-1.979,7.918     c-0.089,1.68,0.287,3.332,0.47,4.992c0.705,5.561,1.553,11.107,2.132,16.686c0.458,4.209,0.475,8.449,0.554,12.678     c0.121,7.861,0.064,15.723-0.006,23.582c-0.148,14.182-0.417,28.359-0.781,42.537c0.864,1.088,1.773,2.146,2.761,3.125     c3.098,2.807,6.384,5.449,10.038,7.502c2.881,1.555,5.777,3.117,8.832,4.299c3.504,0.066,7.009-0.002,10.513,0.025     c2.214-0.002,4.427-0.002,6.64-0.002s4.426,0,6.639,0.002c3.504-0.027,7.01,0.041,10.512-0.025     c3.056-1.182,5.952-2.744,8.833-4.299c3.654-2.053,6.94-4.695,10.038-7.502c0.988-0.979,1.896-2.037,2.761-3.125     c-0.364-14.178-0.634-28.355-0.78-42.537c-0.071-7.859-0.127-15.721-0.007-23.582     C237.338,567.148,237.354,562.908,237.813,558.699z"></path></clipPath><clipPath id="bbkclip-_R_0_"><path d="M237.813,558.699c0.579-5.578,1.427-11.125,2.131-16.686c0.184-1.66,0.56-3.313,0.471-4.992     c-0.11-2.738-0.816-5.441-1.98-7.918c-0.768-1.627-1.703-3.184-2.9-4.533c-2.915-3.346-6.546-5.984-10.332-8.262     c-2.111-1.377-4.435-2.398-6.817-3.203c-4.854-1.613-9.964-2.336-15.06-2.592c-1.352-0.059-2.706-0.09-4.061-0.092     c-1.355,0.002-2.711,0.033-4.063,0.092c-5.096,0.256-10.204,0.979-15.059,2.592c-2.383,0.805-4.707,1.826-6.817,3.203     c-3.786,2.277-7.417,4.916-10.333,8.262c-1.197,1.35-2.132,2.906-2.9,4.533c-1.163,2.477-1.869,5.18-1.979,7.918     c-0.089,1.68,0.287,3.332,0.47,4.992c0.705,5.561,1.553,11.107,2.132,16.686c0.458,4.209,0.475,8.449,0.554,12.678     c0.121,7.861,0.064,15.723-0.006,23.582c-0.148,14.182-0.417,28.359-0.781,42.537c0.864,1.088,1.773,2.146,2.761,3.125     c3.098,2.807,6.384,5.449,10.038,7.502c2.881,1.555,5.777,3.117,8.832,4.299c3.504,0.066,7.009-0.002,10.513,0.025     c2.214-0.002,4.427-0.002,6.64-0.002s4.426,0,6.639,0.002c3.504-0.027,7.01,0.041,10.512-0.025     c3.056-1.182,5.952-2.744,8.833-4.299c3.654-2.053,6.94-4.695,10.038-7.502c0.988-0.979,1.896-2.037,2.761-3.125     c-0.364-14.178-0.634-28.355-0.78-42.537c-0.071-7.859-0.127-15.721-0.007-23.582     C237.338,567.148,237.354,562.908,237.813,558.699z"></path><path d="M250.939,557.84c2.572-1.273,5.078-2.672,7.557-4.117c2.411-1.439,4.735-3.02,7.054-4.602     c-1.452-2.822-2.926-5.635-4.234-8.527c-1.428-3.072-2.464-6.301-3.644-9.469c-1.301-3.5-2.452-7.063-4.059-10.439     c-0.797-1.699-1.683-3.369-2.805-4.879c-2.66-3.662-6.484-6.432-10.744-7.93c-1.697-0.619-3.486-0.912-5.214-1.424     c-4.536-1.273-9.047-2.717-13.317-4.725c-5.047,0.902-10.107,1.746-15.194,2.383c-2.349,0.277-4.708,0.566-7.075,0.572     c-2.367-0.006-4.729-0.295-7.076-0.572c-5.087-0.637-10.146-1.48-15.194-2.383c-4.271,2.008-8.782,3.451-13.317,4.725     c-1.728,0.512-3.517,0.805-5.213,1.424c-4.261,1.498-8.086,4.268-10.744,7.93c-1.123,1.51-2.009,3.18-2.807,4.879     c-1.605,3.377-2.756,6.939-4.057,10.439c-1.182,3.168-2.217,6.396-3.645,9.469c-1.309,2.893-2.782,5.705-4.234,8.527     c2.318,1.582,4.643,3.162,7.053,4.602c2.479,1.445,4.986,2.844,7.559,4.117c2.223,1.08,4.541,2.004,6.969,2.504     c1.34,0.279,2.715,0.287,4.076,0.338c0.342-0.576,0.695-1.143,1.041-1.715c-0.801-6.766-1.793-13.506-2.639-20.266     c-0.188-2.877,0.359-5.771,1.368-8.459c0.782-1.996,1.769-3.939,3.122-5.613c2.466-2.977,5.51-5.418,8.68-7.607     c1.965-1.316,3.945-2.643,6.117-3.605c4.81-2.168,10.045-3.232,15.273-3.75c2.549-0.234,5.107-0.355,7.668-0.357     c2.559,0.002,5.119,0.123,7.666,0.357c5.229,0.518,10.465,1.582,15.275,3.75c2.171,0.963,4.15,2.289,6.116,3.605     c3.17,2.189,6.214,4.631,8.68,7.607c1.354,1.674,2.341,3.617,3.122,5.613c1.009,2.688,1.556,5.582,1.368,8.459     c-0.845,6.76-1.839,13.5-2.64,20.266c0.346,0.572,0.7,1.139,1.042,1.715c1.361-0.051,2.736-0.059,4.076-0.338     C246.396,559.844,248.715,558.92,250.939,557.84z"></path></clipPath></defs><path d="M237.813,558.699c0.579-5.578,1.427-11.125,2.131-16.686c0.184-1.66,0.56-3.313,0.471-4.992     c-0.11-2.738-0.816-5.441-1.98-7.918c-0.768-1.627-1.703-3.184-2.9-4.533c-2.915-3.346-6.546-5.984-10.332-8.262     c-2.111-1.377-4.435-2.398-6.817-3.203c-4.854-1.613-9.964-2.336-15.06-2.592c-1.352-0.059-2.706-0.09-4.061-0.092     c-1.355,0.002-2.711,0.033-4.063,0.092c-5.096,0.256-10.204,0.979-15.059,2.592c-2.383,0.805-4.707,1.826-6.817,3.203     c-3.786,2.277-7.417,4.916-10.333,8.262c-1.197,1.35-2.132,2.906-2.9,4.533c-1.163,2.477-1.869,5.18-1.979,7.918     c-0.089,1.68,0.287,3.332,0.47,4.992c0.705,5.561,1.553,11.107,2.132,16.686c0.458,4.209,0.475,8.449,0.554,12.678     c0.121,7.861,0.064,15.723-0.006,23.582c-0.148,14.182-0.417,28.359-0.781,42.537c0.864,1.088,1.773,2.146,2.761,3.125     c3.098,2.807,6.384,5.449,10.038,7.502c2.881,1.555,5.777,3.117,8.832,4.299c3.504,0.066,7.009-0.002,10.513,0.025     c2.214-0.002,4.427-0.002,6.64-0.002s4.426,0,6.639,0.002c3.504-0.027,7.01,0.041,10.512-0.025     c3.056-1.182,5.952-2.744,8.833-4.299c3.654-2.053,6.94-4.695,10.038-7.502c0.988-0.979,1.896-2.037,2.761-3.125     c-0.364-14.178-0.634-28.355-0.78-42.537c-0.071-7.859-0.127-15.721-0.007-23.582     C237.338,567.148,237.354,562.908,237.813,558.699z" fill="#FFFFFF" stroke="#FFFFFF" stroke-width="0.6"></path><path d="M250.939,557.84c2.572-1.273,5.078-2.672,7.557-4.117c2.411-1.439,4.735-3.02,7.054-4.602     c-1.452-2.822-2.926-5.635-4.234-8.527c-1.428-3.072-2.464-6.301-3.644-9.469c-1.301-3.5-2.452-7.063-4.059-10.439     c-0.797-1.699-1.683-3.369-2.805-4.879c-2.66-3.662-6.484-6.432-10.744-7.93c-1.697-0.619-3.486-0.912-5.214-1.424     c-4.536-1.273-9.047-2.717-13.317-4.725c-5.047,0.902-10.107,1.746-15.194,2.383c-2.349,0.277-4.708,0.566-7.075,0.572     c-2.367-0.006-4.729-0.295-7.076-0.572c-5.087-0.637-10.146-1.48-15.194-2.383c-4.271,2.008-8.782,3.451-13.317,4.725     c-1.728,0.512-3.517,0.805-5.213,1.424c-4.261,1.498-8.086,4.268-10.744,7.93c-1.123,1.51-2.009,3.18-2.807,4.879     c-1.605,3.377-2.756,6.939-4.057,10.439c-1.182,3.168-2.217,6.396-3.645,9.469c-1.309,2.893-2.782,5.705-4.234,8.527     c2.318,1.582,4.643,3.162,7.053,4.602c2.479,1.445,4.986,2.844,7.559,4.117c2.223,1.08,4.541,2.004,6.969,2.504     c1.34,0.279,2.715,0.287,4.076,0.338c0.342-0.576,0.695-1.143,1.041-1.715c-0.801-6.766-1.793-13.506-2.639-20.266     c-0.188-2.877,0.359-5.771,1.368-8.459c0.782-1.996,1.769-3.939,3.122-5.613c2.466-2.977,5.51-5.418,8.68-7.607     c1.965-1.316,3.945-2.643,6.117-3.605c4.81-2.168,10.045-3.232,15.273-3.75c2.549-0.234,5.107-0.355,7.668-0.357     c2.559,0.002,5.119,0.123,7.666,0.357c5.229,0.518,10.465,1.582,15.275,3.75c2.171,0.963,4.15,2.289,6.116,3.605     c3.17,2.189,6.214,4.631,8.68,7.607c1.354,1.674,2.341,3.617,3.122,5.613c1.009,2.688,1.556,5.582,1.368,8.459     c-0.845,6.76-1.839,13.5-2.64,20.266c0.346,0.572,0.7,1.139,1.042,1.715c1.361-0.051,2.736-0.059,4.076-0.338     C246.396,559.844,248.715,558.92,250.939,557.84z" fill="#003831" stroke="#003831" stroke-width="0.6"></path><path d="M199.264,503.578c0.844,0.004,1.688-0.025,2.531-0.107c6.039-0.512,12.02-1.529,17.988-2.555     c-1.809-0.881-3.547-1.939-5.055-3.279c-4.381,0.762-8.764,1.551-13.194,1.963c-0.754,0.084-1.513,0.117-2.271,0.115     c-0.759,0.002-1.518-0.031-2.271-0.115c-4.431-0.412-8.814-1.201-13.195-1.963c-1.507,1.34-3.246,2.398-5.055,3.279     c5.969,1.025,11.951,2.043,17.99,2.555C197.575,503.553,198.42,503.582,199.264,503.578z" fill="#FFFFFF" stroke="#FFFFFF" stroke-width="0.4"></path><path d="M141.029,557.613c-3.256-1.777-6.347-3.838-9.404-5.93c-0.314,0.576-0.626,1.154-0.938,1.734     c4.151,2.832,8.41,5.521,12.89,7.809c2.67,1.35,5.414,2.586,8.3,3.398c1.297,0.352,2.631,0.648,3.983,0.586     c0.35-0.576,0.703-1.15,1.055-1.727c-2.307-0.035-4.563-0.633-6.723-1.408C146.988,560.918,144.002,559.258,141.029,557.613z" fill="#003831" stroke="#003831" stroke-width="0.4"></path><path d="M266.901,551.684c-3.058,2.092-6.148,4.152-9.404,5.93c-2.972,1.645-5.96,3.305-9.162,4.463     c-2.16,0.775-4.416,1.373-6.723,1.408c0.352,0.576,0.705,1.15,1.055,1.727c1.353,0.063,2.687-0.234,3.983-0.586     c2.886-0.813,5.631-2.049,8.3-3.398c4.479-2.287,8.738-4.977,12.89-7.809C267.527,552.838,267.216,552.26,266.901,551.684z" fill="#003831" stroke="#003831" stroke-width="0.4"></path><path d="M144.394,557.193c-2.394-1.295-4.774-2.613-7.061-4.09c-1.61-1.031-3.192-2.107-4.774-3.186     c-0.17,0.322-0.341,0.646-0.513,0.971c1.741,1.189,3.486,2.375,5.269,3.5c2.39,1.494,4.854,2.865,7.344,4.184     c1.805,0.951,3.637,1.867,5.561,2.555c2.32,0.859,4.77,1.564,7.268,1.43c0.201-0.346,0.414-0.688,0.626-1.027     c-1.368-0.021-2.748-0.068-4.085-0.389C150.619,560.377,147.449,558.848,144.394,557.193z" fill="#EFB21E"></path><path d="M265.968,549.918c-1.582,1.078-3.163,2.154-4.774,3.186c-2.286,1.477-4.668,2.795-7.061,4.09     c-3.056,1.654-6.227,3.184-9.634,3.947c-1.337,0.32-2.718,0.367-4.085,0.389c0.212,0.34,0.424,0.682,0.625,1.027     c2.5,0.135,4.949-0.57,7.269-1.43c1.924-0.688,3.757-1.604,5.562-2.555c2.488-1.318,4.953-2.689,7.342-4.184     c1.783-1.125,3.528-2.311,5.27-3.5C266.309,550.564,266.138,550.24,265.968,549.918z" fill="#EFB21E"></path><path d="M234.165,643.092c-1.928,1.639-3.926,3.201-6.046,4.586c-1.725,1.146-3.574,2.086-5.402,3.053     c-1.981,1.014-3.981,2.006-6.064,2.795c-4.182,0.061-8.366,0.023-12.55,0.033c-1.613,0-3.226,0-4.839,0s-3.227,0-4.84,0     c-4.184-0.01-8.368,0.027-12.55-0.033c-2.083-0.789-4.083-1.781-6.065-2.795c-1.827-0.967-3.676-1.906-5.401-3.053     c-2.12-1.385-4.118-2.947-6.046-4.586c-1.413-1.236-2.921-2.436-3.912-4.059c0.004,0.77-0.081,1.541-0.035,2.311     c0.148,0.598,0.621,1.033,1.05,1.441c3.155,2.846,6.507,5.506,10.199,7.625c3.202,1.744,6.445,3.439,9.847,4.762     c5.916,0.061,11.835,0.035,17.754,0.037c5.918-0.002,11.838,0.023,17.753-0.037c3.401-1.322,6.646-3.018,9.847-4.762     c3.692-2.119,7.044-4.779,10.199-7.625c0.43-0.408,0.901-0.844,1.05-1.441c0.046-0.77-0.038-1.541-0.034-2.311     C237.086,640.656,235.578,641.855,234.165,643.092z" fill="#003831" stroke="#003831" stroke-width="0.4"></path><g clip-path="url(#bbkclip-_R_0_)"><rect x="128" y="494" width="142.5" height="166" fill="url(#bbksh-_R_0_)"></rect></g><g transform="translate(-143.6 0)"><path d="M403.326,533.58c-0.631-1.736-1.263-3.475-1.895-5.213c-1.242-3.469-2.503-6.947-4.255-10.197   c-0.833-1.623-1.902-3.109-3.064-4.51c-2.73-3.166-6.335-5.549-10.285-6.9c-1.337-0.469-2.732-0.73-4.095-1.111   c-5.253-1.408-10.452-3.104-15.363-5.455c-2.066-1-4.073-2.182-5.757-3.758c-4.729,0.869-9.475,1.695-14.268,2.123   c-0.501,0.041-1.002,0.053-1.502,0.049c-0.501,0.004-1.001-0.008-1.502-0.049c-4.794-0.428-9.538-1.254-14.268-2.123   c-1.685,1.576-3.691,2.758-5.757,3.758c-4.911,2.352-10.111,4.047-15.363,5.455c-1.362,0.381-2.758,0.643-4.095,1.111   c-3.95,1.352-7.556,3.734-10.285,6.9c-1.162,1.4-2.231,2.887-3.064,4.51c-1.752,3.25-3.014,6.729-4.255,10.197   c-0.632,1.738-1.264,3.477-1.895,5.213c-0.715,1.941-1.369,3.906-2.238,5.787c-2.222,4.904-4.736,9.67-7.315,14.393   c4.013,2.77,8.117,5.424,12.421,7.721c2.566,1.363,5.195,2.629,7.939,3.602c1.535,0.531,3.109,0.979,4.726,1.182   c0.746,0.092,1.509,0.09,2.247-0.061c1.085-1.799,2.2-3.578,3.275-5.381c0.438,8.338,0.396,16.688,0.387,25.033   c-0.088,18.416-0.476,36.828-0.929,55.24c-0.04,0.979,0.636,1.791,1.313,2.416c3.313,2.986,6.829,5.785,10.72,7.986   c1.979,1.08,3.977,2.129,6.021,3.084c1.349,0.59,2.668,1.295,4.075,1.723c5.947,0.014,11.894,0.012,17.841,0.012   c5.946,0,11.894,0.002,17.841-0.012c1.406-0.428,2.726-1.133,4.075-1.723c2.044-0.955,4.042-2.004,6.021-3.084   c3.892-2.201,7.408-5,10.72-7.986c0.679-0.625,1.354-1.438,1.314-2.416c-0.454-18.412-0.841-36.824-0.93-55.24   c-0.009-8.346-0.05-16.695,0.388-25.033c1.074,1.803,2.189,3.582,3.275,5.381c0.738,0.15,1.501,0.152,2.247,0.061   c1.616-0.203,3.189-0.65,4.725-1.182c2.744-0.973,5.373-2.238,7.94-3.602c4.304-2.297,8.407-4.951,12.42-7.721   c-2.578-4.723-5.093-9.488-7.315-14.393C404.694,537.486,404.041,535.521,403.326,533.58z M327.377,497.637   c4.381,0.762,8.764,1.551,13.194,1.963c0.754,0.084,1.513,0.117,2.271,0.115c0.758,0.002,1.517-0.031,2.271-0.115   c4.431-0.412,8.814-1.201,13.194-1.963c1.508,1.34,3.247,2.398,5.056,3.279c-5.969,1.025-11.95,2.043-17.989,2.555   c-0.844,0.082-1.688,0.111-2.531,0.107c-0.844,0.004-1.688-0.025-2.531-0.107c-6.039-0.512-12.021-1.529-17.989-2.555   C324.131,500.035,325.869,498.977,327.377,497.637z M299.438,565.211c-1.353,0.063-2.687-0.234-3.983-0.586   c-2.885-0.813-5.63-2.049-8.3-3.398c-4.479-2.287-8.738-4.977-12.89-7.809c0.313-0.58,0.624-1.158,0.938-1.734   c3.058,2.092,6.149,4.152,9.404,5.93c2.973,1.645,5.96,3.305,9.163,4.463c2.159,0.775,4.415,1.373,6.722,1.408   C300.143,564.061,299.788,564.635,299.438,565.211z M301.066,562.557c-2.499,0.135-4.948-0.57-7.269-1.43   c-1.924-0.688-3.756-1.604-5.561-2.555c-2.489-1.318-4.954-2.689-7.343-4.184c-1.783-1.125-3.528-2.311-5.27-3.5   c0.172-0.324,0.343-0.648,0.514-0.971c1.581,1.078,3.163,2.154,4.773,3.186c2.287,1.477,4.668,2.795,7.061,4.09   c3.056,1.654,6.227,3.184,9.635,3.947c1.336,0.32,2.717,0.367,4.084,0.389C301.48,561.869,301.268,562.211,301.066,562.557z    M381.691,641.344c-0.148,0.598-0.62,1.033-1.05,1.441c-3.155,2.846-6.507,5.506-10.199,7.625   c-3.201,1.744-6.445,3.439-9.847,4.762c-5.915,0.061-11.835,0.035-17.753,0.037c-5.919-0.002-11.838,0.023-17.754-0.037   c-3.401-1.322-6.645-3.018-9.847-4.762c-3.692-2.119-7.044-4.779-10.199-7.625c-0.429-0.408-0.9-0.844-1.05-1.441   c-0.046-0.77,0.039-1.541,0.035-2.311c0.991,1.623,2.499,2.822,3.913,4.059c1.927,1.639,3.925,3.201,6.045,4.586   c1.726,1.146,3.574,2.086,5.402,3.053c1.981,1.014,3.981,2.006,6.064,2.795c4.182,0.061,8.366,0.023,12.55,0.033   c1.613,0,3.227,0,4.84,0s3.226,0,4.839,0c4.184-0.01,8.368,0.027,12.55-0.033c2.083-0.789,4.084-1.781,6.065-2.795   c1.827-0.967,3.677-1.906,5.402-3.053c2.119-1.385,4.117-2.947,6.045-4.586c1.414-1.236,2.921-2.436,3.913-4.059   C381.653,639.803,381.738,640.574,381.691,641.344z M381.392,558.699c-0.457,4.209-0.474,8.449-0.554,12.678   c-0.12,7.861-0.063,15.723,0.007,23.582c0.147,14.182,0.416,28.359,0.78,42.537c-0.864,1.088-1.772,2.146-2.761,3.125   c-3.098,2.807-6.384,5.449-10.038,7.502c-2.881,1.555-5.777,3.117-8.833,4.299c-3.502,0.066-7.008-0.002-10.512,0.025   c-2.213-0.002-4.426-0.002-6.639-0.002s-4.426,0-6.64,0.002c-3.504-0.027-7.009,0.041-10.512-0.025   c-3.056-1.182-5.952-2.744-8.833-4.299c-3.653-2.053-6.94-4.695-10.038-7.502c-0.987-0.979-1.896-2.037-2.76-3.125   c0.363-14.178,0.633-28.355,0.78-42.537c0.07-7.859,0.127-15.721,0.006-23.582c-0.079-4.229-0.096-8.469-0.554-12.678   c-0.579-5.578-1.426-11.125-2.131-16.686c-0.184-1.66-0.559-3.313-0.471-4.992c0.11-2.738,0.816-5.441,1.98-7.918   c0.768-1.627,1.703-3.184,2.9-4.533c2.916-3.346,6.546-5.984,10.332-8.262c2.111-1.377,4.435-2.398,6.817-3.203   c4.854-1.613,9.964-2.336,15.06-2.592c1.352-0.059,2.706-0.09,4.062-0.092c1.354,0.002,2.709,0.033,4.062,0.092   c5.096,0.256,10.204,0.979,15.059,2.592c2.383,0.805,4.707,1.826,6.817,3.203c3.786,2.277,7.417,4.916,10.333,8.262   c1.196,1.35,2.133,2.906,2.9,4.533c1.163,2.477,1.869,5.18,1.979,7.918c0.089,1.68-0.287,3.332-0.47,4.992   C382.818,547.574,381.971,553.121,381.392,558.699z M411.419,553.418c-4.151,2.832-8.41,5.521-12.889,7.809   c-2.67,1.35-5.415,2.586-8.301,3.398c-1.297,0.352-2.631,0.648-3.982,0.586c-0.351-0.576-0.704-1.15-1.056-1.727   c2.308-0.035,4.563-0.633,6.723-1.408c3.203-1.158,6.19-2.818,9.162-4.463c3.256-1.777,6.347-3.838,9.405-5.93   C410.795,552.26,411.106,552.838,411.419,553.418z M410.06,550.889c-1.74,1.189-3.486,2.375-5.269,3.5   c-2.39,1.494-4.854,2.865-7.343,4.184c-1.805,0.951-3.638,1.867-5.562,2.555c-2.319,0.859-4.769,1.564-7.268,1.43   c-0.201-0.346-0.414-0.688-0.626-1.027c1.368-0.021,2.748-0.068,4.085-0.389c3.408-0.764,6.579-2.293,9.634-3.947   c2.393-1.295,4.774-2.613,7.061-4.09c1.611-1.031,3.192-2.107,4.774-3.186C409.718,550.24,409.888,550.564,410.06,550.889z    M402.076,553.723c-2.479,1.445-4.985,2.844-7.558,4.117c-2.224,1.08-4.542,2.004-6.97,2.504c-1.339,0.279-2.715,0.287-4.076,0.338   c-0.342-0.576-0.695-1.143-1.041-1.715c0.801-6.766,1.794-13.506,2.639-20.266c0.188-2.877-0.359-5.771-1.368-8.459   c-0.781-1.996-1.769-3.939-3.122-5.613c-2.466-2.977-5.51-5.418-8.679-7.607c-1.966-1.316-3.946-2.643-6.117-3.605   c-4.811-2.168-10.046-3.232-15.275-3.75c-2.547-0.234-5.106-0.355-7.666-0.357c-2.56,0.002-5.119,0.123-7.667,0.357   c-5.229,0.518-10.465,1.582-15.274,3.75c-2.171,0.963-4.151,2.289-6.117,3.605c-3.17,2.189-6.214,4.631-8.68,7.607   c-1.354,1.674-2.34,3.617-3.122,5.613c-1.009,2.688-1.556,5.582-1.367,8.459c0.845,6.76,1.838,13.5,2.639,20.266   c-0.346,0.572-0.7,1.139-1.042,1.715c-1.361-0.051-2.736-0.059-4.075-0.338c-2.428-0.5-4.746-1.424-6.97-2.504   c-2.572-1.273-5.079-2.672-7.559-4.117c-2.41-1.439-4.734-3.02-7.053-4.602c1.452-2.822,2.927-5.635,4.235-8.527   c1.428-3.072,2.463-6.301,3.644-9.469c1.301-3.5,2.451-7.063,4.058-10.439c0.797-1.699,1.683-3.369,2.806-4.879   c2.659-3.662,6.483-6.432,10.744-7.93c1.696-0.619,3.485-0.912,5.213-1.424c4.536-1.273,9.048-2.717,13.317-4.725   c5.048,0.902,10.107,1.746,15.194,2.383c2.349,0.277,4.709,0.566,7.076,0.572c2.367-0.006,4.728-0.295,7.075-0.572   c5.087-0.637,10.147-1.48,15.194-2.383c4.271,2.008,8.782,3.451,13.317,4.725c1.728,0.512,3.517,0.805,5.214,1.424   c4.26,1.498,8.085,4.268,10.744,7.93c1.122,1.51,2.008,3.18,2.806,4.879c1.605,3.377,2.757,6.939,4.058,10.439   c1.18,3.168,2.216,6.396,3.644,9.469c1.309,2.893,2.782,5.705,4.234,8.527C406.811,550.703,404.486,552.283,402.076,553.723z" fill="#1d1a13" opacity="0.9"></path></g><text x="199.25" y="545" text-anchor="middle" font-family="&#x27;Archivo Black&#x27;,&#x27;Arial Black&#x27;,sans-serif" font-size="26" fill="#003831" stroke="#EFB21E" stroke-width="1" paint-order="stroke" style="letter-spacing:0.06em" aria-label="Team: OAK">OAK</text><text x="199.25" y="600" text-anchor="middle" font-family="&#x27;Archivo Black&#x27;,&#x27;Arial Black&#x27;,sans-serif" font-weight="900" font-size="38" fill="#003831" stroke="#EFB21E" stroke-width="1.6" paint-order="stroke" style="letter-spacing:-0.02em">24</text></svg>
  
  <line x1="20" y1="189.78947368421052" x2="240" y2="189.78947368421052" stroke="#d3c8ae" stroke-width="1"/>
  <text x="56" y="209.78947368421052" text-anchor="middle" font-family="Archivo" font-weight="700" font-size="8" letter-spacing="1" fill="#6b6353">G</text><text x="56" y="224.78947368421052" text-anchor="middle" font-family="Anton" font-size="15" fill="#1d1a13">791</text><text x="130" y="209.78947368421052" text-anchor="middle" font-family="Archivo" font-weight="700" font-size="8" letter-spacing="1" fill="#6b6353">AVG</text><text x="130" y="224.78947368421052" text-anchor="middle" font-family="Anton" font-size="15" fill="#1d1a13">.291</text><text x="204" y="209.78947368421052" text-anchor="middle" font-family="Archivo" font-weight="700" font-size="8" letter-spacing="1" fill="#6b6353">HR</text><text x="204" y="224.78947368421052" text-anchor="middle" font-family="Anton" font-size="15" fill="#1d1a13">51</text><text x="90" y="241.78947368421052" text-anchor="middle" font-family="Archivo" font-weight="700" font-size="8" letter-spacing="1" fill="#6b6353">RBI</text><text x="90" y="256.7894736842105" text-anchor="middle" font-family="Anton" font-size="15" fill="#1d1a13">271</text><text x="170" y="241.78947368421052" text-anchor="middle" font-family="Archivo" font-weight="700" font-size="8" letter-spacing="1" fill="#6b6353">SB</text><text x="170" y="256.7894736842105" text-anchor="middle" font-family="Anton" font-size="15" fill="#1d1a13">493</text>
</svg>